<mxfile host="app.diagrams.net" modified="2021-10-16T15:49:33.054Z" agent="5.0 (Windows)" etag="KThQ-IZbH1pC4YmTogBN" version="14.5.10" type="github">
  <diagram id="C5RBs43oDa-KdzZeNtuy" name="Page-1">
    <mxGraphModel dx="2249" dy="752" grid="1" gridSize="10" guides="1" tooltips="1" connect="1" arrows="1" fold="1" page="1" pageScale="1" pageWidth="827" pageHeight="1169" math="0" shadow="0">
      <root>
        <mxCell id="WIyWlLk6GJQsqaUBKTNV-0" />
        <mxCell id="WIyWlLk6GJQsqaUBKTNV-1" parent="WIyWlLk6GJQsqaUBKTNV-0" />
        <mxCell id="Tk_yJH6ydXQLfxNocJbB-6" style="edgeStyle=orthogonalEdgeStyle;rounded=0;orthogonalLoop=1;jettySize=auto;html=1;exitX=1;exitY=0.5;exitDx=0;exitDy=0;entryX=0;entryY=0.5;entryDx=0;entryDy=0;" edge="1" parent="WIyWlLk6GJQsqaUBKTNV-1" source="Tk_yJH6ydXQLfxNocJbB-7" target="Tk_yJH6ydXQLfxNocJbB-9">
          <mxGeometry relative="1" as="geometry">
            <Array as="points">
              <mxPoint x="350" y="280" />
              <mxPoint x="350" y="280" />
            </Array>
          </mxGeometry>
        </mxCell>
        <mxCell id="Tk_yJH6ydXQLfxNocJbB-7" value="&lt;div&gt;Usuario no registrado&lt;/div&gt;" style="ellipse;whiteSpace=wrap;html=1;aspect=fixed;" vertex="1" parent="WIyWlLk6GJQsqaUBKTNV-1">
          <mxGeometry x="200" y="240" width="80" height="80" as="geometry" />
        </mxCell>
        <mxCell id="Tk_yJH6ydXQLfxNocJbB-8" style="edgeStyle=orthogonalEdgeStyle;rounded=0;orthogonalLoop=1;jettySize=auto;html=1;exitX=0.5;exitY=1;exitDx=0;exitDy=0;entryX=0.5;entryY=0;entryDx=0;entryDy=0;" edge="1" parent="WIyWlLk6GJQsqaUBKTNV-1" source="Tk_yJH6ydXQLfxNocJbB-9" target="Tk_yJH6ydXQLfxNocJbB-28">
          <mxGeometry relative="1" as="geometry" />
        </mxCell>
        <mxCell id="Tk_yJH6ydXQLfxNocJbB-9" value="Usuario registrado" style="ellipse;whiteSpace=wrap;html=1;aspect=fixed;" vertex="1" parent="WIyWlLk6GJQsqaUBKTNV-1">
          <mxGeometry x="380" y="220" width="120" height="120" as="geometry" />
        </mxCell>
        <mxCell id="Tk_yJH6ydXQLfxNocJbB-10" style="edgeStyle=orthogonalEdgeStyle;rounded=0;orthogonalLoop=1;jettySize=auto;html=1;exitX=0;exitY=0.5;exitDx=0;exitDy=0;entryX=1;entryY=0.5;entryDx=0;entryDy=0;" edge="1" parent="WIyWlLk6GJQsqaUBKTNV-1" source="Tk_yJH6ydXQLfxNocJbB-13" target="Tk_yJH6ydXQLfxNocJbB-36">
          <mxGeometry relative="1" as="geometry" />
        </mxCell>
        <mxCell id="Tk_yJH6ydXQLfxNocJbB-11" style="edgeStyle=orthogonalEdgeStyle;rounded=0;orthogonalLoop=1;jettySize=auto;html=1;exitX=0;exitY=0.5;exitDx=0;exitDy=0;entryX=1;entryY=0.5;entryDx=0;entryDy=0;" edge="1" parent="WIyWlLk6GJQsqaUBKTNV-1" source="Tk_yJH6ydXQLfxNocJbB-13" target="Tk_yJH6ydXQLfxNocJbB-37">
          <mxGeometry relative="1" as="geometry" />
        </mxCell>
        <mxCell id="Tk_yJH6ydXQLfxNocJbB-12" style="edgeStyle=orthogonalEdgeStyle;rounded=0;orthogonalLoop=1;jettySize=auto;html=1;exitX=0;exitY=0.5;exitDx=0;exitDy=0;entryX=1;entryY=0.5;entryDx=0;entryDy=0;" edge="1" parent="WIyWlLk6GJQsqaUBKTNV-1" source="Tk_yJH6ydXQLfxNocJbB-13" target="Tk_yJH6ydXQLfxNocJbB-38">
          <mxGeometry relative="1" as="geometry" />
        </mxCell>
        <mxCell id="Tk_yJH6ydXQLfxNocJbB-13" value="Informacion del juego" style="ellipse;whiteSpace=wrap;html=1;aspect=fixed;" vertex="1" parent="WIyWlLk6GJQsqaUBKTNV-1">
          <mxGeometry x="100" y="400" width="80" height="80" as="geometry" />
        </mxCell>
        <mxCell id="Tk_yJH6ydXQLfxNocJbB-14" value="" style="endArrow=classic;html=1;exitX=0;exitY=0.5;exitDx=0;exitDy=0;entryX=0.5;entryY=0;entryDx=0;entryDy=0;" edge="1" parent="WIyWlLk6GJQsqaUBKTNV-1" source="Tk_yJH6ydXQLfxNocJbB-7" target="Tk_yJH6ydXQLfxNocJbB-13">
          <mxGeometry width="50" height="50" relative="1" as="geometry">
            <mxPoint x="350" y="460" as="sourcePoint" />
            <mxPoint x="400" y="410" as="targetPoint" />
          </mxGeometry>
        </mxCell>
        <mxCell id="Tk_yJH6ydXQLfxNocJbB-15" value="accede" style="text;html=1;strokeColor=none;fillColor=none;align=center;verticalAlign=middle;whiteSpace=wrap;rounded=0;" vertex="1" parent="WIyWlLk6GJQsqaUBKTNV-1">
          <mxGeometry x="130" y="320" width="40" height="20" as="geometry" />
        </mxCell>
        <mxCell id="Tk_yJH6ydXQLfxNocJbB-16" value="Se registra" style="text;html=1;strokeColor=none;fillColor=none;align=center;verticalAlign=middle;whiteSpace=wrap;rounded=0;" vertex="1" parent="WIyWlLk6GJQsqaUBKTNV-1">
          <mxGeometry x="310" y="250" width="70" height="20" as="geometry" />
        </mxCell>
        <mxCell id="Tk_yJH6ydXQLfxNocJbB-17" value="Alumno Ceed" style="ellipse;whiteSpace=wrap;html=1;aspect=fixed;" vertex="1" parent="WIyWlLk6GJQsqaUBKTNV-1">
          <mxGeometry x="580" y="180" width="80" height="80" as="geometry" />
        </mxCell>
        <mxCell id="Tk_yJH6ydXQLfxNocJbB-18" value="" style="endArrow=classic;html=1;exitX=1;exitY=0.5;exitDx=0;exitDy=0;entryX=0;entryY=0.5;entryDx=0;entryDy=0;" edge="1" parent="WIyWlLk6GJQsqaUBKTNV-1" source="Tk_yJH6ydXQLfxNocJbB-9" target="Tk_yJH6ydXQLfxNocJbB-17">
          <mxGeometry width="50" height="50" relative="1" as="geometry">
            <mxPoint x="350" y="460" as="sourcePoint" />
            <mxPoint x="400" y="410" as="targetPoint" />
          </mxGeometry>
        </mxCell>
        <mxCell id="Tk_yJH6ydXQLfxNocJbB-19" value="Puede eser" style="text;html=1;strokeColor=none;fillColor=none;align=center;verticalAlign=middle;whiteSpace=wrap;rounded=0;" vertex="1" parent="WIyWlLk6GJQsqaUBKTNV-1">
          <mxGeometry x="480" y="210" width="70" height="20" as="geometry" />
        </mxCell>
        <mxCell id="Tk_yJH6ydXQLfxNocJbB-20" value="" style="endArrow=classic;html=1;exitX=0;exitY=1;exitDx=0;exitDy=0;entryX=1;entryY=0.375;entryDx=0;entryDy=0;entryPerimeter=0;" edge="1" parent="WIyWlLk6GJQsqaUBKTNV-1" source="Tk_yJH6ydXQLfxNocJbB-9" target="Tk_yJH6ydXQLfxNocJbB-13">
          <mxGeometry width="50" height="50" relative="1" as="geometry">
            <mxPoint x="320" y="560" as="sourcePoint" />
            <mxPoint x="370" y="510" as="targetPoint" />
          </mxGeometry>
        </mxCell>
        <mxCell id="Tk_yJH6ydXQLfxNocJbB-21" value="accede" style="text;html=1;strokeColor=none;fillColor=none;align=center;verticalAlign=middle;whiteSpace=wrap;rounded=0;" vertex="1" parent="WIyWlLk6GJQsqaUBKTNV-1">
          <mxGeometry x="290" y="370" width="40" height="20" as="geometry" />
        </mxCell>
        <mxCell id="Tk_yJH6ydXQLfxNocJbB-22" style="edgeStyle=orthogonalEdgeStyle;rounded=0;orthogonalLoop=1;jettySize=auto;html=1;exitX=0.5;exitY=1;exitDx=0;exitDy=0;entryX=0.5;entryY=0;entryDx=0;entryDy=0;" edge="1" parent="WIyWlLk6GJQsqaUBKTNV-1" source="Tk_yJH6ydXQLfxNocJbB-28" target="Tk_yJH6ydXQLfxNocJbB-40">
          <mxGeometry relative="1" as="geometry" />
        </mxCell>
        <mxCell id="Tk_yJH6ydXQLfxNocJbB-23" style="edgeStyle=orthogonalEdgeStyle;rounded=0;orthogonalLoop=1;jettySize=auto;html=1;exitX=0.5;exitY=1;exitDx=0;exitDy=0;entryX=0.5;entryY=0;entryDx=0;entryDy=0;" edge="1" parent="WIyWlLk6GJQsqaUBKTNV-1" source="Tk_yJH6ydXQLfxNocJbB-28" target="Tk_yJH6ydXQLfxNocJbB-41">
          <mxGeometry relative="1" as="geometry" />
        </mxCell>
        <mxCell id="Tk_yJH6ydXQLfxNocJbB-24" style="edgeStyle=orthogonalEdgeStyle;rounded=0;orthogonalLoop=1;jettySize=auto;html=1;exitX=0.5;exitY=1;exitDx=0;exitDy=0;entryX=0.5;entryY=0;entryDx=0;entryDy=0;" edge="1" parent="WIyWlLk6GJQsqaUBKTNV-1" source="Tk_yJH6ydXQLfxNocJbB-28" target="Tk_yJH6ydXQLfxNocJbB-42">
          <mxGeometry relative="1" as="geometry" />
        </mxCell>
        <mxCell id="Tk_yJH6ydXQLfxNocJbB-25" style="edgeStyle=orthogonalEdgeStyle;rounded=0;orthogonalLoop=1;jettySize=auto;html=1;exitX=0.5;exitY=1;exitDx=0;exitDy=0;entryX=0.5;entryY=0;entryDx=0;entryDy=0;" edge="1" parent="WIyWlLk6GJQsqaUBKTNV-1" source="Tk_yJH6ydXQLfxNocJbB-28" target="Tk_yJH6ydXQLfxNocJbB-43">
          <mxGeometry relative="1" as="geometry" />
        </mxCell>
        <mxCell id="Tk_yJH6ydXQLfxNocJbB-26" style="edgeStyle=orthogonalEdgeStyle;rounded=0;orthogonalLoop=1;jettySize=auto;html=1;exitX=0.5;exitY=1;exitDx=0;exitDy=0;entryX=0.5;entryY=0;entryDx=0;entryDy=0;" edge="1" parent="WIyWlLk6GJQsqaUBKTNV-1" source="Tk_yJH6ydXQLfxNocJbB-28" target="Tk_yJH6ydXQLfxNocJbB-45">
          <mxGeometry relative="1" as="geometry" />
        </mxCell>
        <mxCell id="Tk_yJH6ydXQLfxNocJbB-27" style="edgeStyle=orthogonalEdgeStyle;rounded=0;orthogonalLoop=1;jettySize=auto;html=1;exitX=0.5;exitY=1;exitDx=0;exitDy=0;entryX=0.5;entryY=0;entryDx=0;entryDy=0;" edge="1" parent="WIyWlLk6GJQsqaUBKTNV-1" source="Tk_yJH6ydXQLfxNocJbB-28" target="Tk_yJH6ydXQLfxNocJbB-47">
          <mxGeometry relative="1" as="geometry" />
        </mxCell>
        <mxCell id="Tk_yJH6ydXQLfxNocJbB-28" value="Dashboard" style="ellipse;whiteSpace=wrap;html=1;aspect=fixed;" vertex="1" parent="WIyWlLk6GJQsqaUBKTNV-1">
          <mxGeometry x="400" y="420" width="80" height="80" as="geometry" />
        </mxCell>
        <mxCell id="Tk_yJH6ydXQLfxNocJbB-29" value="accede" style="text;html=1;strokeColor=none;fillColor=none;align=center;verticalAlign=middle;whiteSpace=wrap;rounded=0;" vertex="1" parent="WIyWlLk6GJQsqaUBKTNV-1">
          <mxGeometry x="450" y="350" width="40" height="20" as="geometry" />
        </mxCell>
        <mxCell id="Tk_yJH6ydXQLfxNocJbB-30" value="Tablero" style="ellipse;whiteSpace=wrap;html=1;aspect=fixed;" vertex="1" parent="WIyWlLk6GJQsqaUBKTNV-1">
          <mxGeometry x="410" y="730" width="80" height="80" as="geometry" />
        </mxCell>
        <mxCell id="Tk_yJH6ydXQLfxNocJbB-31" style="edgeStyle=orthogonalEdgeStyle;rounded=0;orthogonalLoop=1;jettySize=auto;html=1;exitX=0.5;exitY=1;exitDx=0;exitDy=0;entryX=0.5;entryY=0;entryDx=0;entryDy=0;" edge="1" parent="WIyWlLk6GJQsqaUBKTNV-1" source="Tk_yJH6ydXQLfxNocJbB-32" target="Tk_yJH6ydXQLfxNocJbB-9">
          <mxGeometry relative="1" as="geometry" />
        </mxCell>
        <mxCell id="Tk_yJH6ydXQLfxNocJbB-32" value="Informacion del CEED" style="ellipse;whiteSpace=wrap;html=1;aspect=fixed;" vertex="1" parent="WIyWlLk6GJQsqaUBKTNV-1">
          <mxGeometry x="400" y="60" width="80" height="80" as="geometry" />
        </mxCell>
        <mxCell id="Tk_yJH6ydXQLfxNocJbB-33" value="&lt;div&gt;recibe&lt;/div&gt;" style="text;html=1;align=center;verticalAlign=middle;resizable=0;points=[];autosize=1;strokeColor=none;" vertex="1" parent="WIyWlLk6GJQsqaUBKTNV-1">
          <mxGeometry x="389" y="170" width="50" height="20" as="geometry" />
        </mxCell>
        <mxCell id="Tk_yJH6ydXQLfxNocJbB-34" style="edgeStyle=orthogonalEdgeStyle;rounded=0;orthogonalLoop=1;jettySize=auto;html=1;exitX=0.5;exitY=1;exitDx=0;exitDy=0;entryX=0.5;entryY=0;entryDx=0;entryDy=0;" edge="1" parent="WIyWlLk6GJQsqaUBKTNV-1" source="Tk_yJH6ydXQLfxNocJbB-35" target="Tk_yJH6ydXQLfxNocJbB-17">
          <mxGeometry relative="1" as="geometry" />
        </mxCell>
        <mxCell id="Tk_yJH6ydXQLfxNocJbB-35" value="Horariosy avisos del CEED" style="ellipse;whiteSpace=wrap;html=1;" vertex="1" parent="WIyWlLk6GJQsqaUBKTNV-1">
          <mxGeometry x="560" y="40" width="120" height="70" as="geometry" />
        </mxCell>
        <mxCell id="Tk_yJH6ydXQLfxNocJbB-36" value="Reglas" style="ellipse;whiteSpace=wrap;html=1;" vertex="1" parent="WIyWlLk6GJQsqaUBKTNV-1">
          <mxGeometry x="-130" y="333.75" width="90" height="55" as="geometry" />
        </mxCell>
        <mxCell id="Tk_yJH6ydXQLfxNocJbB-37" value="Enlaces interes" style="ellipse;whiteSpace=wrap;html=1;" vertex="1" parent="WIyWlLk6GJQsqaUBKTNV-1">
          <mxGeometry x="-130" y="411.25" width="90" height="55" as="geometry" />
        </mxCell>
        <mxCell id="Tk_yJH6ydXQLfxNocJbB-38" value="Redes sociales" style="ellipse;whiteSpace=wrap;html=1;" vertex="1" parent="WIyWlLk6GJQsqaUBKTNV-1">
          <mxGeometry x="-130" y="491.25" width="90" height="55" as="geometry" />
        </mxCell>
        <mxCell id="Tk_yJH6ydXQLfxNocJbB-39" value="Contiene" style="text;html=1;align=center;verticalAlign=middle;resizable=0;points=[];autosize=1;strokeColor=none;" vertex="1" parent="WIyWlLk6GJQsqaUBKTNV-1">
          <mxGeometry x="30" y="420" width="70" height="20" as="geometry" />
        </mxCell>
        <mxCell id="Tk_yJH6ydXQLfxNocJbB-40" value="Perfil" style="ellipse;whiteSpace=wrap;html=1;" vertex="1" parent="WIyWlLk6GJQsqaUBKTNV-1">
          <mxGeometry x="110" y="570" width="100" height="50" as="geometry" />
        </mxCell>
        <mxCell id="Tk_yJH6ydXQLfxNocJbB-41" value="Historial de partidas" style="ellipse;whiteSpace=wrap;html=1;" vertex="1" parent="WIyWlLk6GJQsqaUBKTNV-1">
          <mxGeometry x="230" y="570" width="100" height="50" as="geometry" />
        </mxCell>
        <mxCell id="Tk_yJH6ydXQLfxNocJbB-42" value="Ajustes" style="ellipse;whiteSpace=wrap;html=1;" vertex="1" parent="WIyWlLk6GJQsqaUBKTNV-1">
          <mxGeometry x="350" y="570" width="100" height="50" as="geometry" />
        </mxCell>
        <mxCell id="Tk_yJH6ydXQLfxNocJbB-43" value="Contactos" style="ellipse;whiteSpace=wrap;html=1;" vertex="1" parent="WIyWlLk6GJQsqaUBKTNV-1">
          <mxGeometry x="460" y="570" width="100" height="50" as="geometry" />
        </mxCell>
        <mxCell id="Tk_yJH6ydXQLfxNocJbB-44" style="edgeStyle=orthogonalEdgeStyle;rounded=0;orthogonalLoop=1;jettySize=auto;html=1;exitX=0.5;exitY=1;exitDx=0;exitDy=0;entryX=0.5;entryY=0;entryDx=0;entryDy=0;" edge="1" parent="WIyWlLk6GJQsqaUBKTNV-1" source="Tk_yJH6ydXQLfxNocJbB-45" target="Tk_yJH6ydXQLfxNocJbB-30">
          <mxGeometry relative="1" as="geometry" />
        </mxCell>
        <mxCell id="Tk_yJH6ydXQLfxNocJbB-45" value="Partidas en juego" style="ellipse;whiteSpace=wrap;html=1;" vertex="1" parent="WIyWlLk6GJQsqaUBKTNV-1">
          <mxGeometry x="590" y="570" width="100" height="50" as="geometry" />
        </mxCell>
        <mxCell id="Tk_yJH6ydXQLfxNocJbB-46" style="edgeStyle=orthogonalEdgeStyle;rounded=0;orthogonalLoop=1;jettySize=auto;html=1;exitX=0.5;exitY=1;exitDx=0;exitDy=0;" edge="1" parent="WIyWlLk6GJQsqaUBKTNV-1" source="Tk_yJH6ydXQLfxNocJbB-47">
          <mxGeometry relative="1" as="geometry">
            <mxPoint x="450" y="730" as="targetPoint" />
          </mxGeometry>
        </mxCell>
        <mxCell id="Tk_yJH6ydXQLfxNocJbB-47" value="Nueva partida" style="ellipse;whiteSpace=wrap;html=1;" vertex="1" parent="WIyWlLk6GJQsqaUBKTNV-1">
          <mxGeometry x="710" y="570" width="100" height="50" as="geometry" />
        </mxCell>
        <mxCell id="Tk_yJH6ydXQLfxNocJbB-48" value="Contiene" style="text;html=1;align=center;verticalAlign=middle;resizable=0;points=[];autosize=1;strokeColor=none;" vertex="1" parent="WIyWlLk6GJQsqaUBKTNV-1">
          <mxGeometry x="439" y="508.75" width="70" height="20" as="geometry" />
        </mxCell>
        <mxCell id="Tk_yJH6ydXQLfxNocJbB-49" value="Accede" style="text;html=1;align=center;verticalAlign=middle;resizable=0;points=[];autosize=1;strokeColor=none;" vertex="1" parent="WIyWlLk6GJQsqaUBKTNV-1">
          <mxGeometry x="509" y="680" width="60" height="20" as="geometry" />
        </mxCell>
      </root>
    </mxGraphModel>
  </diagram>
</mxfile>
